{
  "accessors": [
    {
      "bufferView": 2,
      "componentType": 5126,
      "count": 447,
      "max": [
        2.1590540409088135,
        2.5505380630493164,
        6.030196189880371
      ],
      "min": [
        2.118199110031128,
        -1.8418970108032227,
        0.44821399450302124
      ],
      "type": "VEC3"
    },
    {
      "bufferView": 2,
      "byteOffset": 5364,
      "componentType": 5126,
      "count": 447,
      "max": [
        1.0,
        0.9987753629684448,
        0.9988492131233215
      ],
      "min": [
        0.0,
        -0.9978077411651611,
        -0.9963146448135376
      ],
      "type": "VEC3"
    },
    {
      "bufferView": 1,
      "componentType": 5126,
      "count": 447,
      "max": [
        0.927079975605011,
        0.9153310060501099
      ],
      "min": [
        0.00572500005364418,
        0.2047249972820282
      ],
      "type": "VEC2"
    },
    {
      "bufferView": 0,
      "componentType": 5125,
      "count": 981,
      "type": "SCALAR"
    },
    {
      "bufferView": 2,
      "byteOffset": 10728,
      "componentType": 5126,
      "count": 3024,
      "max": [
        2.2300000190734863,
        2.6263370513916016,
        6.085732936859131
      ],
      "min": [
        1.409019947052002,
        -1.9202109575271606,
        0.38091999292373657
      ],
      "type": "VEC3"
    },
    {
      "bufferView": 2,
      "byteOffset": 47016,
      "componentType": 5126,
      "count": 3024,
      "max": [
        1.0,
        0.9999988079071045,
        1.0
      ],
      "min": [
        -1.0,
        -1.0,
        -1.0
      ],
      "type": "VEC3"
    },
    {
      "bufferView": 1,
      "byteOffset": 3576,
      "componentType": 5126,
      "count": 3024,
      "max": [
        0.927079975605011,
        0.9153310060501099
      ],
      "min": [
        0.0018500000005587935,
        0.0019920000340789557
      ],
      "type": "VEC2"
    },
    {
      "bufferView": 0,
      "byteOffset": 3924,
      "componentType": 5125,
      "count": 6441,
      "type": "SCALAR"
    },
    {
      "bufferView": 2,
      "byteOffset": 83304,
      "componentType": 5126,
      "count": 4,
      "max": [
        1.2147870063781738,
        0.325967013835907,
        4.559217929840088
      ],
      "min": [
        -1.2147870063781738,
        -0.18482500314712524,
        3.1252849102020264
      ],
      "type": "VEC3"
    },
    {
      "bufferView": 2,
      "byteOffset": 83352,
      "componentType": 5126,
      "count": 4,
      "max": [
        0.0,
        -0.9420177340507507,
        0.33556291460990906
      ],
      "min": [
        0.0,
        -0.9420177340507507,
        0.33556291460990906
      ],
      "type": "VEC3"
    },
    {
      "bufferView": 1,
      "byteOffset": 27768,
      "componentType": 5126,
      "count": 4,
      "max": [
        0.9830080270767212,
        0.7523210048675537
      ],
      "min": [
        0.01708099991083145,
        0.24615199863910675
      ],
      "type": "VEC2"
    },
    {
      "bufferView": 0,
      "byteOffset": 29688,
      "componentType": 5125,
      "count": 6,
      "type": "SCALAR"
    },
    {
      "bufferView": 2,
      "byteOffset": 83400,
      "componentType": 5126,
      "count": 589,
      "max": [
        1.5012580156326294,
        2.5682380199432373,
        8.751862525939941
      ],
      "min": [
        -1.5012580156326294,
        -0.398171991109848,
        7.244513988494873
      ],
      "type": "VEC3"
    },
    {
      "bufferView": 2,
      "byteOffset": 90468,
      "componentType": 5126,
      "count": 589,
      "max": [
        0.9988273978233337,
        0.9991909861564636,
        1.0
      ],
      "min": [
        -0.9988273978233337,
        -0.9997407793998718,
        -0.9565820693969727
      ],
      "type": "VEC3"
    },
    {
      "bufferView": 1,
      "byteOffset": 27800,
      "componentType": 5126,
      "count": 589,
      "max": [
        1.0,
        1.0
      ],
      "min": [
        0.0,
        0.514805018901825
      ],
      "type": "VEC2"
    },
    {
      "bufferView": 0,
      "byteOffset": 29712,
      "componentType": 5125,
      "count": 2982,
      "type": "SCALAR"
    },
    {
      "bufferView": 2,
      "byteOffset": 97536,
      "componentType": 5126,
      "count": 147,
      "max": [
        1.4016849994659424,
        2.4500789642333984,
        7.665482044219971
      ],
      "min": [
        -1.4016849994659424,
        -0.3912470042705536,
        6.67568302154541
      ],
      "type": "VEC3"
    },
    {
      "bufferView": 2,
      "byteOffset": 99300,
      "componentType": 5126,
      "count": 147,
      "max": [
        1.0,
        1.0,
        0.8391596078872681
      ],
      "min": [
        -1.0,
        -0.99371337890625,
        -0.8342000246047974
      ],
      "type": "VEC3"
    },
    {
      "bufferView": 1,
      "byteOffset": 32512,
      "componentType": 5126,
      "count": 147,
      "max": [
        1.0,
        0.5833330154418945
      ],
      "min": [
        0.0,
        0.41666701436042786
      ],
      "type": "VEC2"
    },
    {
      "bufferView": 0,
      "byteOffset": 41640,
      "componentType": 5125,
      "count": 588,
      "type": "SCALAR"
    },
    {
      "bufferView": 2,
      "byteOffset": 101064,
      "componentType": 5126,
      "count": 764,
      "max": [
        1.5012580156326294,
        2.5682380199432373,
        7.526968955993652
      ],
      "min": [
        -1.5012580156326294,
        -0.5775619745254517,
        5.589427947998047
      ],
      "type": "VEC3"
    },
    {
      "bufferView": 2,
      "byteOffset": 110232,
      "componentType": 5126,
      "count": 764,
      "max": [
        0.9988263845443726,
        0.9991909265518188,
        0.9963889122009277
      ],
      "min": [
        -0.9988263845443726,
        -0.9999999403953552,
        -1.0
      ],
      "type": "VEC3"
    },
    {
      "bufferView": 1,
      "byteOffset": 33688,
      "componentType": 5126,
      "count": 764,
      "max": [
        1.0,
        0.5346180200576782
      ],
      "min": [
        0.0,
        0.0
      ],
      "type": "VEC2"
    },
    {
      "bufferView": 0,
      "byteOffset": 43992,
      "componentType": 5125,
      "count": 3870,
      "type": "SCALAR"
    },
    {
      "bufferView": 2,
      "byteOffset": 119400,
      "componentType": 5126,
      "count": 56,
      "max": [
        1.8076050281524658,
        2.9642419815063477,
        6.157916069030762
      ],
      "min": [
        -1.8076050281524658,
        -2.276308059692383,
        0.02815599925816059
      ],
      "type": "VEC3"
    },
    {
      "bufferView": 2,
      "byteOffset": 120072,
      "componentType": 5126,
      "count": 56,
      "max": [
        0.0,
        1.0,
        1.0
      ],
      "min": [
        0.0,
        -1.0,
        -1.0
      ],
      "type": "VEC3"
    },
    {
      "bufferView": 0,
      "byteOffset": 59472,
      "componentType": 5125,
      "count": 108,
      "type": "SCALAR"
    },
    {
      "bufferView": 2,
      "byteOffset": 120744,
      "componentType": 5126,
      "count": 436,
      "max": [
        2.19411301612854,
        3.0865700244903564,
        6.28209114074707
      ],
      "min": [
        -2.194709062576294,
        -2.402669906616211,
        -0.4934850037097931
      ],
      "type": "VEC3"
    },
    {
      "bufferView": 2,
      "byteOffset": 125976,
      "componentType": 5126,
      "count": 436,
      "max": [
        1.0,
        1.0,
        1.0
      ],
      "min": [
        -1.0,
        -0.9999514818191528,
        -1.0
      ],
      "type": "VEC3"
    },
    {
      "bufferView": 0,
      "byteOffset": 59904,
      "componentType": 5125,
      "count": 1158,
      "type": "SCALAR"
    },
    {
      "bufferView": 2,
      "byteOffset": 131208,
      "componentType": 5126,
      "count": 4485,
      "max": [
        2.2300000190734863,
        2.6263370513916016,
        6.085732936859131
      ],
      "min": [
        -1.0089980363845825,
        -1.9202109575271606,
        0.3809190094470978
      ],
      "type": "VEC3"
    },
    {
      "bufferView": 2,
      "byteOffset": 185028,
      "componentType": 5126,
      "count": 4485,
      "max": [
        1.0,
        0.9999977350234985,
        0.9999953508377075
      ],
      "min": [
        -1.0,
        -0.9999998807907104,
        -0.9999973773956299
      ],
      "type": "VEC3"
    },
    {
      "bufferView": 1,
      "byteOffset": 39800,
      "componentType": 5126,
      "count": 4485,
      "max": [
        0.927079975605011,
        0.979066014289856
      ],
      "min": [
        0.0018500000005587935,
        0.020934000611305237
      ],
      "type": "VEC2"
    },
    {
      "bufferView": 0,
      "byteOffset": 64536,
      "componentType": 5125,
      "count": 13902,
      "type": "SCALAR"
    }
  ],
  "asset": {
    "extras": {
      "author": "Selien Labee (https://sketchfab.com/selien)",
      "license": "CC-BY-4.0 (http://creativecommons.org/licenses/by/4.0/)",
      "source": "https://sketchfab.com/3d-models/pokemon-arcade-aa302486bda14329976399736703c4ee",
      "title": "Pokémon Arcade"
    },
    "generator": "Sketchfab-14.15.0",
    "version": "2.0"
  },
  "bufferViews": [
    {
      "buffer": 0,
      "byteLength": 120144,
      "name": "floatBufferViews",
      "target": 34963
    },
    {
      "buffer": 0,
      "byteLength": 75680,
      "byteOffset": 120144,
      "byteStride": 8,
      "name": "floatBufferViews",
      "target": 34962
    },
    {
      "buffer": 0,
      "byteLength": 238848,
      "byteOffset": 195824,
      "byteStride": 12,
      "name": "floatBufferViews",
      "target": 34962
    }
  ],
  "buffers": [
    {
      "byteLength": 434672,
      "uri": "scene.bin"
    }
  ],
  "images": [
    {
      "uri": "textures/aiStandardSurface6SG_baseColor.jpeg"
    }
  ],
  "materials": [
    {
      "doubleSided": true,
      "name": "aiStandardSurface1SG",
      "pbrMetallicRoughness": {
        "baseColorFactor": [
          1.0,
          0.6509724963521266,
          0.01499303941969177,
          1.0
        ],
        "metallicFactor": 0.0,
        "roughnessFactor": 0.8
      }
    },
    {
      "doubleSided": true,
      "name": "aiStandardSurface2SG",
      "pbrMetallicRoughness": {
        "baseColorFactor": [
          0.04731723341145018,
          0.023930773910400868,
          0.8853105837027843,
          1.0
        ],
        "metallicFactor": 0.0,
        "roughnessFactor": 0.30268369401872686
      }
    },
    {
      "doubleSided": true,
      "name": "aiStandardSurface3SG",
      "pbrMetallicRoughness": {
        "baseColorFactor": [
          0.8121519896,
          0.007820937599999992,
          0.007820937599999992,
          1.0
        ],
        "metallicFactor": 0.0,
        "roughnessFactor": 0.0
      }
    },
    {
      "doubleSided": true,
      "name": "aiStandardSurface4SG",
      "pbrMetallicRoughness": {
        "metallicFactor": 0.0,
        "roughnessFactor": 0.6
      }
    },
    {
      "doubleSided": true,
      "name": "aiStandardSurface5SG",
      "pbrMetallicRoughness": {
        "baseColorFactor": [
          0.0539396493,
          0.0539396493,
          0.0539396493,
          1.0
        ],
        "metallicFactor": 0.0,
        "roughnessFactor": 0.6
      }
    },
    {
      "doubleSided": true,
      "name": "aiStandardSurface6SG",
      "pbrMetallicRoughness": {
        "baseColorTexture": {
          "index": 0
        },
        "metallicFactor": 0.0,
        "roughnessFactor": 0.5774242516719934
      }
    }
  ],
  "meshes": [
    {
      "name": "Object_0",
      "primitives": [
        {
          "attributes": {
            "NORMAL": 1,
            "POSITION": 0,
            "TEXCOORD_0": 2
          },
          "indices": 3,
          "material": 0,
          "mode": 4
        }
      ]
    },
    {
      "name": "Object_1",
      "primitives": [
        {
          "attributes": {
            "NORMAL": 5,
            "POSITION": 4,
            "TEXCOORD_0": 6
          },
          "indices": 7,
          "material": 1,
          "mode": 4
        }
      ]
    },
    {
      "name": "Object_2",
      "primitives": [
        {
          "attributes": {
            "NORMAL": 9,
            "POSITION": 8,
            "TEXCOORD_0": 10
          },
          "indices": 11,
          "material": 5,
          "mode": 4
        }
      ]
    },
    {
      "name": "Object_3",
      "primitives": [
        {
          "attributes": {
            "NORMAL": 13,
            "POSITION": 12,
            "TEXCOORD_0": 14
          },
          "indices": 15,
          "material": 2,
          "mode": 4
        }
      ]
    },
    {
      "name": "Object_4",
      "primitives": [
        {
          "attributes": {
            "NORMAL": 17,
            "POSITION": 16,
            "TEXCOORD_0": 18
          },
          "indices": 19,
          "material": 4,
          "mode": 4
        }
      ]
    },
    {
      "name": "Object_5",
      "primitives": [
        {
          "attributes": {
            "NORMAL": 21,
            "POSITION": 20,
            "TEXCOORD_0": 22
          },
          "indices": 23,
          "material": 3,
          "mode": 4
        }
      ]
    },
    {
      "name": "Object_6",
      "primitives": [
        {
          "attributes": {
            "NORMAL": 25,
            "POSITION": 24
          },
          "indices": 26,
          "material": 0,
          "mode": 4
        }
      ]
    },
    {
      "name": "Object_7",
      "primitives": [
        {
          "attributes": {
            "NORMAL": 28,
            "POSITION": 27
          },
          "indices": 29,
          "material": 1,
          "mode": 4
        }
      ]
    },
    {
      "name": "Object_8",
      "primitives": [
        {
          "attributes": {
            "NORMAL": 31,
            "POSITION": 30,
            "TEXCOORD_0": 32
          },
          "indices": 33,
          "material": 1,
          "mode": 4
        }
      ]
    }
  ],
  "nodes": [
    {
      "children": [
        1
      ],
      "matrix": [
        1.0,
        0.0,
        0.0,
        0.0,
        0.0,
        2.220446049250313e-16,
        -1.0,
        0.0,
        0.0,
        1.0,
        2.220446049250313e-16,
        0.0,
        0.0,
        0.0,
        0.0,
        1.0
      ],
      "name": "Sketchfab_model"
    },
    {
      "children": [
        2,
        3,
        4,
        5,
        6,
        7,
        8,
        9,
        10
      ],
      "name": "Pokemon Arcade.obj.cleaner.materialmerger.gles"
    },
    {
      "mesh": 0,
      "name": "Object_2"
    },
    {
      "mesh": 1,
      "name": "Object_3"
    },
    {
      "mesh": 2,
      "name": "Object_4"
    },
    {
      "mesh": 3,
      "name": "Object_5"
    },
    {
      "mesh": 4,
      "name": "Object_6"
    },
    {
      "mesh": 5,
      "name": "Object_7"
    },
    {
      "mesh": 6,
      "name": "Object_8"
    },
    {
      "mesh": 7,
      "name": "Object_9"
    },
    {
      "mesh": 8,
      "name": "Object_10"
    }
  ],
  "samplers": [
    {
      "magFilter": 9729,
      "minFilter": 9987,
      "wrapS": 10497,
      "wrapT": 10497
    }
  ],
  "scene": 0,
  "scenes": [
    {
      "name": "Sketchfab_Scene",
      "nodes": [
        0
      ]
    }
  ],
  "textures": [
    {
      "sampler": 0,
      "source": 0
    }
  ]
}
